<svg width="400" height="1079" viewBox="0 0 400 1079" fill="none" xmlns="http://www.w3.org/2000/svg">
<rect width="400" height="1079" fill="white"/>
<path d="M29.2656 99.2578H31.1484C31.8047 99.2578 32.4115 99.3698 32.9688 99.5938C33.5312 99.8125 34.0208 100.125 34.4375 100.531C34.8594 100.938 35.1875 101.422 35.4219 101.984C35.6562 102.542 35.7734 103.159 35.7734 103.836C35.7734 104.513 35.6562 105.133 35.4219 105.695C35.1875 106.258 34.8594 106.745 34.4375 107.156C34.0208 107.562 33.5312 107.878 32.9688 108.102C32.4115 108.32 31.8047 108.43 31.1484 108.43H29.2656C28.6094 108.43 28.0026 108.32 27.4453 108.102C26.888 107.878 26.3984 107.562 25.9766 107.156C25.5599 106.75 25.2344 106.268 25 105.711C24.7708 105.148 24.6562 104.529 24.6562 103.852C24.6562 103.174 24.7708 102.557 25 102C25.2344 101.438 25.5599 100.953 25.9766 100.547C26.3984 100.135 26.888 99.8177 27.4453 99.5938C28.0026 99.3698 28.6094 99.2578 29.2656 99.2578ZM29.2656 100.445C28.5833 100.445 28.0052 100.589 27.5312 100.875C27.0573 101.156 26.6979 101.552 26.4531 102.062C26.2083 102.573 26.0859 103.169 26.0859 103.852C26.0859 104.367 26.1536 104.833 26.2891 105.25C26.4297 105.667 26.6354 106.023 26.9062 106.32C27.1771 106.617 27.5104 106.846 27.9062 107.008C28.3021 107.169 28.7552 107.25 29.2656 107.25H31.1641C31.8411 107.25 32.4141 107.109 32.8828 106.828C33.3568 106.542 33.7161 106.143 33.9609 105.633C34.2109 105.117 34.3359 104.518 34.3359 103.836C34.3359 103.326 34.2656 102.862 34.125 102.445C33.9844 102.029 33.7786 101.672 33.5078 101.375C33.2422 101.078 32.9115 100.849 32.5156 100.688C32.125 100.526 31.6745 100.445 31.1641 100.445H29.2656ZM30.9375 97.6562V109.969H29.4922V97.6562H30.9375ZM39.1734 107.211L43.0719 101.047H44.525V109.5H43.0719V103.336L39.1734 109.5H37.7359V101.047H39.1734V107.211ZM52.6437 101.047V102.242H48.5578V101.047H52.6437ZM53.9172 101.047V109.5H52.4719V101.047H53.9172ZM48.2062 101.047H49.6594L49.4406 105.125C49.4042 105.755 49.3443 106.312 49.2609 106.797C49.1828 107.276 49.0734 107.688 48.9328 108.031C48.7974 108.375 48.6255 108.656 48.4172 108.875C48.2141 109.089 47.9693 109.247 47.6828 109.352C47.3964 109.451 47.0656 109.5 46.6906 109.5H46.2375V108.227L46.55 108.203C46.774 108.188 46.9641 108.135 47.1203 108.047C47.2818 107.958 47.4172 107.828 47.5266 107.656C47.6359 107.479 47.7245 107.253 47.7922 106.977C47.8651 106.701 47.9198 106.372 47.9562 105.992C47.9979 105.612 48.0292 105.169 48.05 104.664L48.2062 101.047ZM57.5828 103.953H60.1219C60.8042 103.953 61.3797 104.073 61.8484 104.312C62.3172 104.547 62.6714 104.872 62.9109 105.289C63.1557 105.701 63.2781 106.169 63.2781 106.695C63.2781 107.086 63.2104 107.453 63.075 107.797C62.9396 108.135 62.7365 108.432 62.4656 108.688C62.2 108.943 61.8693 109.143 61.4734 109.289C61.0828 109.43 60.6323 109.5 60.1219 109.5H56.5281V101.047H57.9734V108.312H60.1219C60.5385 108.312 60.8719 108.237 61.1219 108.086C61.3719 107.935 61.5516 107.74 61.6609 107.5C61.7703 107.26 61.825 107.01 61.825 106.75C61.825 106.495 61.7703 106.245 61.6609 106C61.5516 105.755 61.3719 105.552 61.1219 105.391C60.8719 105.224 60.5385 105.141 60.1219 105.141H57.5828V103.953ZM68.1312 101.047V109.5H66.6781V101.047H68.1312ZM70.9672 101.047V102.219H63.8969V101.047H70.9672ZM73.9844 102.672V112.75H72.5312V101.047H73.8594L73.9844 102.672ZM79.6797 105.203V105.367C79.6797 105.982 79.6068 106.552 79.4609 107.078C79.3151 107.599 79.1016 108.052 78.8203 108.438C78.5443 108.823 78.2031 109.122 77.7969 109.336C77.3906 109.549 76.9245 109.656 76.3984 109.656C75.862 109.656 75.388 109.568 74.9766 109.391C74.5651 109.214 74.2161 108.956 73.9297 108.617C73.6432 108.279 73.4141 107.872 73.2422 107.398C73.0755 106.924 72.9609 106.391 72.8984 105.797V104.922C72.9609 104.297 73.0781 103.737 73.25 103.242C73.4219 102.747 73.6484 102.326 73.9297 101.977C74.2161 101.622 74.5625 101.354 74.9688 101.172C75.375 100.984 75.8438 100.891 76.375 100.891C76.9062 100.891 77.3776 100.995 77.7891 101.203C78.2005 101.406 78.5469 101.698 78.8281 102.078C79.1094 102.458 79.3203 102.914 79.4609 103.445C79.6068 103.971 79.6797 104.557 79.6797 105.203ZM78.2266 105.367V105.203C78.2266 104.781 78.1823 104.385 78.0938 104.016C78.0052 103.641 77.8672 103.312 77.6797 103.031C77.4974 102.745 77.263 102.521 76.9766 102.359C76.6901 102.193 76.349 102.109 75.9531 102.109C75.5885 102.109 75.2708 102.172 75 102.297C74.7344 102.422 74.5078 102.591 74.3203 102.805C74.1328 103.013 73.9792 103.253 73.8594 103.523C73.7448 103.789 73.6589 104.065 73.6016 104.352V106.375C73.7057 106.74 73.8516 107.083 74.0391 107.406C74.2266 107.724 74.4766 107.982 74.7891 108.18C75.1016 108.372 75.4948 108.469 75.9688 108.469C76.3594 108.469 76.6953 108.388 76.9766 108.227C77.263 108.06 77.4974 107.833 77.6797 107.547C77.8672 107.26 78.0052 106.932 78.0938 106.562C78.1823 106.188 78.2266 105.789 78.2266 105.367ZM86.6578 108.055V103.703C86.6578 103.37 86.5901 103.081 86.4547 102.836C86.3245 102.586 86.1266 102.393 85.8609 102.258C85.5953 102.122 85.2672 102.055 84.8766 102.055C84.512 102.055 84.1917 102.117 83.9156 102.242C83.6448 102.367 83.4313 102.531 83.275 102.734C83.124 102.938 83.0484 103.156 83.0484 103.391H81.6031C81.6031 103.089 81.6813 102.789 81.8375 102.492C81.9938 102.195 82.2177 101.927 82.5094 101.688C82.8063 101.443 83.1604 101.25 83.5719 101.109C83.9885 100.964 84.4521 100.891 84.9625 100.891C85.5771 100.891 86.1188 100.995 86.5875 101.203C87.0615 101.411 87.4313 101.727 87.6969 102.148C87.9677 102.565 88.1031 103.089 88.1031 103.719V107.656C88.1031 107.938 88.1266 108.237 88.1734 108.555C88.2255 108.872 88.301 109.146 88.4 109.375V109.5H86.8922C86.8193 109.333 86.762 109.112 86.7203 108.836C86.6786 108.555 86.6578 108.294 86.6578 108.055ZM86.9078 104.375L86.9234 105.391H85.4625C85.051 105.391 84.6839 105.424 84.3609 105.492C84.038 105.555 83.7672 105.651 83.5484 105.781C83.3297 105.911 83.163 106.076 83.0484 106.273C82.9339 106.466 82.8766 106.693 82.8766 106.953C82.8766 107.219 82.9365 107.461 83.0563 107.68C83.176 107.898 83.3557 108.073 83.5953 108.203C83.8401 108.328 84.1396 108.391 84.4938 108.391C84.9365 108.391 85.3271 108.297 85.6656 108.109C86.0042 107.922 86.2724 107.693 86.4703 107.422C86.6734 107.151 86.7828 106.888 86.7984 106.633L87.4156 107.328C87.3792 107.547 87.2802 107.789 87.1188 108.055C86.9573 108.32 86.7411 108.576 86.4703 108.82C86.2047 109.06 85.887 109.26 85.5172 109.422C85.1526 109.578 84.7411 109.656 84.2828 109.656C83.7099 109.656 83.2073 109.544 82.775 109.32C82.3479 109.096 82.0146 108.797 81.775 108.422C81.5406 108.042 81.4234 107.617 81.4234 107.148C81.4234 106.695 81.512 106.297 81.6891 105.953C81.8661 105.604 82.1214 105.315 82.4547 105.086C82.788 104.852 83.1891 104.674 83.6578 104.555C84.1266 104.435 84.65 104.375 85.2281 104.375H86.9078ZM90.6516 109.5V101.047H92.0969V108.312H95.9875V101.047H97.4406V109.5H90.6516ZM98.4406 108.312L98.3 112.008H97.0109V109.5H95.9094V108.312H98.4406ZM101.723 107.211L105.622 101.047H107.075V109.5H105.622V103.336L101.723 109.5H100.286V101.047H101.723V107.211ZM111.256 105.469H112.819L110.373 109.5H108.811L111.256 105.469ZM112.467 101.047H115.998V109.5H114.553V102.219H112.467C112.056 102.219 111.72 102.289 111.459 102.43C111.199 102.565 111.009 102.742 110.889 102.961C110.769 103.18 110.709 103.406 110.709 103.641C110.709 103.87 110.764 104.091 110.873 104.305C110.983 104.513 111.155 104.685 111.389 104.82C111.623 104.956 111.926 105.023 112.295 105.023H114.944V106.211H112.295C111.811 106.211 111.381 106.146 111.006 106.016C110.631 105.885 110.314 105.706 110.053 105.477C109.793 105.242 109.595 104.969 109.459 104.656C109.324 104.339 109.256 103.995 109.256 103.625C109.256 103.255 109.327 102.914 109.467 102.602C109.613 102.289 109.821 102.016 110.092 101.781C110.368 101.547 110.704 101.367 111.1 101.242C111.501 101.112 111.957 101.047 112.467 101.047Z" fill="black"/>
<path d="M369.25 100.307L368.193 99.25L364 103.443L359.807 99.25L358.75 100.307L362.943 104.5L358.75 108.693L359.807 109.75L364 105.557L368.193 109.75L369.25 108.693L365.057 104.5L369.25 100.307Z" fill="black" fill-opacity="0.87"/>
<path d="M28 134H372C373.933 134 375.5 135.567 375.5 137.5V185.5C375.5 187.433 373.933 189 372 189H28C26.067 189 24.5 187.433 24.5 185.5V137.5C24.5 135.567 26.067 134 28 134Z" stroke="black" stroke-opacity="0.23"/>
<path d="M41.375 161.18H38.4922L38.4766 159.969H41.0938C41.526 159.969 41.9036 159.896 42.2266 159.75C42.5495 159.604 42.7995 159.396 42.9766 159.125C43.1589 158.849 43.25 158.521 43.25 158.141C43.25 157.724 43.1693 157.385 43.0078 157.125C42.8516 156.859 42.6094 156.667 42.2812 156.547C41.9583 156.422 41.5469 156.359 41.0469 156.359H38.8281V166.5H37.3203V155.125H41.0469C41.6302 155.125 42.151 155.185 42.6094 155.305C43.0677 155.419 43.4557 155.602 43.7734 155.852C44.0964 156.096 44.3411 156.409 44.5078 156.789C44.6745 157.169 44.7578 157.625 44.7578 158.156C44.7578 158.625 44.638 159.049 44.3984 159.43C44.1589 159.805 43.8255 160.112 43.3984 160.352C42.9766 160.591 42.4818 160.745 41.9141 160.812L41.375 161.18ZM41.3047 166.5H37.8984L38.75 165.273H41.3047C41.7839 165.273 42.1901 165.19 42.5234 165.023C42.862 164.857 43.1198 164.622 43.2969 164.32C43.474 164.013 43.5625 163.651 43.5625 163.234C43.5625 162.812 43.487 162.448 43.3359 162.141C43.1849 161.833 42.9479 161.596 42.625 161.43C42.3021 161.263 41.8854 161.18 41.375 161.18H39.2266L39.2422 159.969H42.1797L42.5 160.406C43.0469 160.453 43.5104 160.609 43.8906 160.875C44.2708 161.135 44.5599 161.469 44.7578 161.875C44.9609 162.281 45.0625 162.729 45.0625 163.219C45.0625 163.927 44.9062 164.526 44.5938 165.016C44.2865 165.5 43.8516 165.87 43.2891 166.125C42.7266 166.375 42.0651 166.5 41.3047 166.5ZM48.6656 159.672V169.75H47.2125V158.047H48.5406L48.6656 159.672ZM54.3609 162.203V162.367C54.3609 162.982 54.288 163.552 54.1422 164.078C53.9964 164.599 53.7828 165.052 53.5016 165.438C53.2255 165.823 52.8844 166.122 52.4781 166.336C52.0719 166.549 51.6057 166.656 51.0797 166.656C50.5432 166.656 50.0693 166.568 49.6578 166.391C49.2464 166.214 48.8974 165.956 48.6109 165.617C48.3245 165.279 48.0953 164.872 47.9234 164.398C47.7568 163.924 47.6422 163.391 47.5797 162.797V161.922C47.6422 161.297 47.7594 160.737 47.9312 160.242C48.1031 159.747 48.3297 159.326 48.6109 158.977C48.8974 158.622 49.2437 158.354 49.65 158.172C50.0562 157.984 50.525 157.891 51.0562 157.891C51.5875 157.891 52.0589 157.995 52.4703 158.203C52.8818 158.406 53.2281 158.698 53.5094 159.078C53.7906 159.458 54.0016 159.914 54.1422 160.445C54.288 160.971 54.3609 161.557 54.3609 162.203ZM52.9078 162.367V162.203C52.9078 161.781 52.8635 161.385 52.775 161.016C52.6865 160.641 52.5484 160.312 52.3609 160.031C52.1786 159.745 51.9443 159.521 51.6578 159.359C51.3714 159.193 51.0302 159.109 50.6344 159.109C50.2698 159.109 49.9521 159.172 49.6812 159.297C49.4156 159.422 49.1891 159.591 49.0016 159.805C48.8141 160.013 48.6604 160.253 48.5406 160.523C48.426 160.789 48.3401 161.065 48.2828 161.352V163.375C48.387 163.74 48.5328 164.083 48.7203 164.406C48.9078 164.724 49.1578 164.982 49.4703 165.18C49.7828 165.372 50.176 165.469 50.65 165.469C51.0406 165.469 51.3766 165.388 51.6578 165.227C51.9443 165.06 52.1786 164.833 52.3609 164.547C52.5484 164.26 52.6865 163.932 52.775 163.562C52.8635 163.188 52.9078 162.789 52.9078 162.367ZM61.3391 165.055V160.703C61.3391 160.37 61.2714 160.081 61.1359 159.836C61.0057 159.586 60.8078 159.393 60.5422 159.258C60.2766 159.122 59.9484 159.055 59.5578 159.055C59.1932 159.055 58.8729 159.117 58.5969 159.242C58.326 159.367 58.1125 159.531 57.9562 159.734C57.8052 159.938 57.7297 160.156 57.7297 160.391H56.2844C56.2844 160.089 56.3625 159.789 56.5187 159.492C56.675 159.195 56.899 158.927 57.1906 158.688C57.4875 158.443 57.8417 158.25 58.2531 158.109C58.6698 157.964 59.1333 157.891 59.6437 157.891C60.2583 157.891 60.8 157.995 61.2687 158.203C61.7427 158.411 62.1125 158.727 62.3781 159.148C62.649 159.565 62.7844 160.089 62.7844 160.719V164.656C62.7844 164.938 62.8078 165.237 62.8547 165.555C62.9068 165.872 62.9823 166.146 63.0812 166.375V166.5H61.5734C61.5005 166.333 61.4432 166.112 61.4016 165.836C61.3599 165.555 61.3391 165.294 61.3391 165.055ZM61.5891 161.375L61.6047 162.391H60.1437C59.7323 162.391 59.3651 162.424 59.0422 162.492C58.7193 162.555 58.4484 162.651 58.2297 162.781C58.0109 162.911 57.8443 163.076 57.7297 163.273C57.6151 163.466 57.5578 163.693 57.5578 163.953C57.5578 164.219 57.6177 164.461 57.7375 164.68C57.8573 164.898 58.037 165.073 58.2766 165.203C58.5214 165.328 58.8208 165.391 59.175 165.391C59.6177 165.391 60.0083 165.297 60.3469 165.109C60.6854 164.922 60.9536 164.693 61.1516 164.422C61.3547 164.151 61.4641 163.888 61.4797 163.633L62.0969 164.328C62.0604 164.547 61.9615 164.789 61.8 165.055C61.6385 165.32 61.4224 165.576 61.1516 165.82C60.8859 166.06 60.5682 166.26 60.1984 166.422C59.8339 166.578 59.4224 166.656 58.9641 166.656C58.3911 166.656 57.8885 166.544 57.4562 166.32C57.0292 166.096 56.6958 165.797 56.4562 165.422C56.2219 165.042 56.1047 164.617 56.1047 164.148C56.1047 163.695 56.1932 163.297 56.3703 162.953C56.5474 162.604 56.8026 162.315 57.1359 162.086C57.4693 161.852 57.8703 161.674 58.3391 161.555C58.8078 161.435 59.3312 161.375 59.9094 161.375H61.5891ZM71.5828 158.047V166.5H70.1375V158.047H71.5828ZM71.0906 161.93V163.117C70.799 163.227 70.5021 163.326 70.2 163.414C69.9031 163.497 69.588 163.565 69.2547 163.617C68.9266 163.664 68.5698 163.688 68.1844 163.688C67.5177 163.688 66.9396 163.573 66.45 163.344C65.9604 163.109 65.5828 162.758 65.3172 162.289C65.0516 161.815 64.9188 161.219 64.9188 160.5V158.031H66.3641V160.5C66.3641 160.969 66.4344 161.349 66.575 161.641C66.7156 161.932 66.9214 162.148 67.1922 162.289C67.463 162.424 67.7938 162.492 68.1844 162.492C68.5594 162.492 68.9109 162.469 69.2391 162.422C69.5724 162.37 69.8901 162.302 70.1922 162.219C70.4995 162.135 70.799 162.039 71.0906 161.93Z" fill="black" fill-opacity="0.87"/>
<path d="M347 159L352 164L357 159H347Z" fill="black" fill-opacity="0.56"/>
<path d="M28 206H372C373.933 206 375.5 207.567 375.5 209.5V257.5C375.5 259.433 373.933 261 372 261H28C26.067 261 24.5 259.433 24.5 257.5V209.5C24.5 207.567 26.067 206 28 206Z" stroke="black" stroke-opacity="0.23"/>
<path d="M46.0078 227.125V238.5H44.5078V228.359H38.8984V238.5H37.3906V227.125H46.0078ZM53.6578 237.055V232.703C53.6578 232.37 53.5901 232.081 53.4547 231.836C53.3245 231.586 53.1266 231.393 52.8609 231.258C52.5953 231.122 52.2672 231.055 51.8766 231.055C51.512 231.055 51.1917 231.117 50.9156 231.242C50.6448 231.367 50.4312 231.531 50.275 231.734C50.124 231.938 50.0484 232.156 50.0484 232.391H48.6031C48.6031 232.089 48.6812 231.789 48.8375 231.492C48.9937 231.195 49.2177 230.927 49.5094 230.688C49.8062 230.443 50.1604 230.25 50.5719 230.109C50.9885 229.964 51.4521 229.891 51.9625 229.891C52.5771 229.891 53.1187 229.995 53.5875 230.203C54.0615 230.411 54.4312 230.727 54.6969 231.148C54.9677 231.565 55.1031 232.089 55.1031 232.719V236.656C55.1031 236.938 55.1266 237.237 55.1734 237.555C55.2255 237.872 55.301 238.146 55.4 238.375V238.5H53.8922C53.8193 238.333 53.762 238.112 53.7203 237.836C53.6786 237.555 53.6578 237.294 53.6578 237.055ZM53.9078 233.375L53.9234 234.391H52.4625C52.051 234.391 51.6839 234.424 51.3609 234.492C51.038 234.555 50.7672 234.651 50.5484 234.781C50.3297 234.911 50.163 235.076 50.0484 235.273C49.9339 235.466 49.8766 235.693 49.8766 235.953C49.8766 236.219 49.9365 236.461 50.0562 236.68C50.176 236.898 50.3557 237.073 50.5953 237.203C50.8401 237.328 51.1396 237.391 51.4937 237.391C51.9365 237.391 52.3271 237.297 52.6656 237.109C53.0042 236.922 53.2724 236.693 53.4703 236.422C53.6734 236.151 53.7828 235.888 53.7984 235.633L54.4156 236.328C54.3792 236.547 54.2802 236.789 54.1187 237.055C53.9573 237.32 53.7411 237.576 53.4703 237.82C53.2047 238.06 52.887 238.26 52.5172 238.422C52.1526 238.578 51.7411 238.656 51.2828 238.656C50.7099 238.656 50.2073 238.544 49.775 238.32C49.3479 238.096 49.0146 237.797 48.775 237.422C48.5406 237.042 48.4234 236.617 48.4234 236.148C48.4234 235.695 48.512 235.297 48.6891 234.953C48.8661 234.604 49.1214 234.315 49.4547 234.086C49.788 233.852 50.1891 233.674 50.6578 233.555C51.1266 233.435 51.65 233.375 52.2281 233.375H53.9078ZM57.6516 238.5V230.047H59.0969V237.312H62.9875V230.047H64.4406V238.5H57.6516ZM65.4406 237.312L65.3 241.008H64.0109V238.5H62.9094V237.312H65.4406ZM68.7234 236.211L72.6219 230.047H74.075V238.5H72.6219V232.336L68.7234 238.5H67.2859V230.047H68.7234V236.211ZM80.0531 238.656C79.4646 238.656 78.9307 238.557 78.4516 238.359C77.9776 238.156 77.5687 237.872 77.225 237.508C76.8865 237.143 76.626 236.711 76.4437 236.211C76.2615 235.711 76.1703 235.164 76.1703 234.57V234.242C76.1703 233.555 76.2719 232.943 76.475 232.406C76.6781 231.865 76.9542 231.406 77.3031 231.031C77.6521 230.656 78.0479 230.372 78.4906 230.18C78.9333 229.987 79.3917 229.891 79.8656 229.891C80.4698 229.891 80.9906 229.995 81.4281 230.203C81.8708 230.411 82.2328 230.703 82.5141 231.078C82.7953 231.448 83.0036 231.885 83.1391 232.391C83.2745 232.891 83.3422 233.438 83.3422 234.031V234.68H77.0297V233.5H81.8969V233.391C81.876 233.016 81.7979 232.651 81.6625 232.297C81.5323 231.943 81.324 231.651 81.0375 231.422C80.751 231.193 80.3604 231.078 79.8656 231.078C79.5375 231.078 79.2354 231.148 78.9594 231.289C78.6833 231.424 78.4464 231.628 78.2484 231.898C78.0505 232.169 77.8969 232.5 77.7875 232.891C77.6781 233.281 77.6234 233.732 77.6234 234.242V234.57C77.6234 234.971 77.6781 235.349 77.7875 235.703C77.9021 236.052 78.0661 236.359 78.2797 236.625C78.4984 236.891 78.7615 237.099 79.0687 237.25C79.3812 237.401 79.7354 237.477 80.1312 237.477C80.6417 237.477 81.074 237.372 81.4281 237.164C81.7823 236.956 82.0922 236.677 82.3578 236.328L83.2328 237.023C83.0505 237.299 82.8187 237.562 82.5375 237.812C82.2562 238.062 81.9099 238.266 81.4984 238.422C81.0922 238.578 80.6104 238.656 80.0531 238.656ZM90.9141 233.711V234.883H86.4453V233.711H90.9141ZM86.75 230.047V238.5H85.3047V230.047H86.75ZM92.0859 230.047V238.5H90.6328V230.047H92.0859ZM98.0094 230.047V238.5H96.5563V230.047H98.0094ZM100.845 230.047V231.219H93.775V230.047H100.845Z" fill="black" fill-opacity="0.87"/>
<path d="M347 231L352 236L357 231H347Z" fill="black" fill-opacity="0.56"/>
<path d="M24.5 281.5C24.5 279.567 26.067 278 28 278H372C373.933 278 375.5 279.567 375.5 281.5V329.5C375.5 331.433 373.933 333 372 333H28C26.067 333 24.5 331.433 24.5 329.5V281.5Z" stroke="black" stroke-opacity="0.23"/>
<path d="M40.8438 306.727L43.8516 299.125H45.5859L41.5625 308.602C41.4479 308.867 41.3203 309.125 41.1797 309.375C41.0391 309.62 40.8672 309.839 40.6641 310.031C40.4609 310.224 40.2083 310.378 39.9062 310.492C39.6094 310.607 39.2396 310.664 38.7969 310.664C38.6719 310.664 38.5234 310.656 38.3516 310.641C38.1797 310.63 38.0677 310.617 38.0156 310.602L38.0625 309.398C38.1198 309.409 38.2318 309.419 38.3984 309.43C38.5651 309.435 38.6875 309.438 38.7656 309.438C39.0625 309.438 39.2969 309.378 39.4688 309.258C39.6406 309.138 39.7786 308.987 39.8828 308.805C39.9922 308.617 40.0911 308.427 40.1797 308.234L40.8438 306.727ZM38.2891 299.125L41.4531 306.211L41.8281 307.609L40.5625 307.703L36.6016 299.125H38.2891ZM50.1656 309.469C50.5094 309.469 50.8271 309.398 51.1187 309.258C51.4104 309.117 51.65 308.924 51.8375 308.68C52.025 308.43 52.1318 308.146 52.1578 307.828H53.5328C53.5068 308.328 53.3375 308.794 53.025 309.227C52.7177 309.654 52.3141 310 51.8141 310.266C51.3141 310.526 50.7646 310.656 50.1656 310.656C49.5302 310.656 48.9755 310.544 48.5016 310.32C48.0328 310.096 47.6422 309.789 47.3297 309.398C47.0224 309.008 46.7906 308.56 46.6344 308.055C46.4833 307.544 46.4078 307.005 46.4078 306.438V306.109C46.4078 305.542 46.4833 305.005 46.6344 304.5C46.7906 303.99 47.0224 303.539 47.3297 303.148C47.6422 302.758 48.0328 302.451 48.5016 302.227C48.9755 302.003 49.5302 301.891 50.1656 301.891C50.8271 301.891 51.4052 302.026 51.9 302.297C52.3948 302.562 52.7828 302.927 53.0641 303.391C53.3505 303.849 53.5068 304.37 53.5328 304.953H52.1578C52.1318 304.604 52.0328 304.289 51.8609 304.008C51.6943 303.727 51.4651 303.503 51.1734 303.336C50.887 303.164 50.551 303.078 50.1656 303.078C49.7229 303.078 49.3505 303.167 49.0484 303.344C48.7516 303.516 48.5146 303.75 48.3375 304.047C48.1656 304.339 48.0406 304.664 47.9625 305.023C47.8896 305.378 47.8531 305.74 47.8531 306.109V306.438C47.8531 306.807 47.8896 307.172 47.9625 307.531C48.0354 307.891 48.1578 308.216 48.3297 308.508C48.5068 308.799 48.7437 309.034 49.0406 309.211C49.3427 309.383 49.7177 309.469 50.1656 309.469ZM60.9562 302.047V303.242H56.8703V302.047H60.9562ZM62.2297 302.047V310.5H60.7844V302.047H62.2297ZM56.5187 302.047H57.9719L57.7531 306.125C57.7167 306.755 57.6568 307.312 57.5734 307.797C57.4953 308.276 57.3859 308.688 57.2453 309.031C57.1099 309.375 56.938 309.656 56.7297 309.875C56.5266 310.089 56.2818 310.247 55.9953 310.352C55.7089 310.451 55.3781 310.5 55.0031 310.5H54.55V309.227L54.8625 309.203C55.0865 309.188 55.2766 309.135 55.4328 309.047C55.5943 308.958 55.7297 308.828 55.8391 308.656C55.9484 308.479 56.037 308.253 56.1047 307.977C56.1776 307.701 56.2323 307.372 56.2687 306.992C56.3104 306.612 56.3417 306.169 56.3625 305.664L56.5187 302.047ZM67.0828 309.625L69.4344 302.047H70.9813L67.5906 311.805C67.5125 312.013 67.4083 312.237 67.2781 312.477C67.1531 312.721 66.9917 312.953 66.7938 313.172C66.5958 313.391 66.3563 313.568 66.075 313.703C65.799 313.844 65.4682 313.914 65.0828 313.914C64.9682 313.914 64.8224 313.898 64.6453 313.867C64.4682 313.836 64.3432 313.81 64.2703 313.789L64.2625 312.617C64.3042 312.622 64.3693 312.628 64.4578 312.633C64.5516 312.643 64.6167 312.648 64.6531 312.648C64.9813 312.648 65.2599 312.604 65.4891 312.516C65.7182 312.432 65.9109 312.289 66.0672 312.086C66.2286 311.888 66.3667 311.615 66.4813 311.266L67.0828 309.625ZM65.3563 302.047L67.5516 308.609L67.9266 310.133L66.8875 310.664L63.7781 302.047H65.3563ZM77.8969 302.047V303.242H73.9906V310.5H72.5453V302.047H77.8969ZM84.2891 309.055V304.703C84.2891 304.37 84.2214 304.081 84.0859 303.836C83.9557 303.586 83.7578 303.393 83.4922 303.258C83.2266 303.122 82.8984 303.055 82.5078 303.055C82.1432 303.055 81.8229 303.117 81.5469 303.242C81.276 303.367 81.0625 303.531 80.9062 303.734C80.7552 303.938 80.6797 304.156 80.6797 304.391H79.2344C79.2344 304.089 79.3125 303.789 79.4688 303.492C79.625 303.195 79.849 302.927 80.1406 302.688C80.4375 302.443 80.7917 302.25 81.2031 302.109C81.6198 301.964 82.0833 301.891 82.5938 301.891C83.2083 301.891 83.75 301.995 84.2188 302.203C84.6927 302.411 85.0625 302.727 85.3281 303.148C85.599 303.565 85.7344 304.089 85.7344 304.719V308.656C85.7344 308.938 85.7578 309.237 85.8047 309.555C85.8568 309.872 85.9323 310.146 86.0312 310.375V310.5H84.5234C84.4505 310.333 84.3932 310.112 84.3516 309.836C84.3099 309.555 84.2891 309.294 84.2891 309.055ZM84.5391 305.375L84.5547 306.391H83.0938C82.6823 306.391 82.3151 306.424 81.9922 306.492C81.6693 306.555 81.3984 306.651 81.1797 306.781C80.9609 306.911 80.7943 307.076 80.6797 307.273C80.5651 307.466 80.5078 307.693 80.5078 307.953C80.5078 308.219 80.5677 308.461 80.6875 308.68C80.8073 308.898 80.987 309.073 81.2266 309.203C81.4714 309.328 81.7708 309.391 82.125 309.391C82.5677 309.391 82.9583 309.297 83.2969 309.109C83.6354 308.922 83.9036 308.693 84.1016 308.422C84.3047 308.151 84.4141 307.888 84.4297 307.633L85.0469 308.328C85.0104 308.547 84.9115 308.789 84.75 309.055C84.5885 309.32 84.3724 309.576 84.1016 309.82C83.8359 310.06 83.5182 310.26 83.1484 310.422C82.7839 310.578 82.3724 310.656 81.9141 310.656C81.3411 310.656 80.8385 310.544 80.4062 310.32C79.9792 310.096 79.6458 309.797 79.4062 309.422C79.1719 309.042 79.0547 308.617 79.0547 308.148C79.0547 307.695 79.1432 307.297 79.3203 306.953C79.4974 306.604 79.7526 306.315 80.0859 306.086C80.4193 305.852 80.8203 305.674 81.2891 305.555C81.7578 305.435 82.2812 305.375 82.8594 305.375H84.5391Z" fill="black" fill-opacity="0.87"/>
<path d="M347 303L352 308L357 303H347Z" fill="black" fill-opacity="0.56"/>
<path d="M24.5 353.5C24.5 351.567 26.067 350 28 350H372C373.933 350 375.5 351.567 375.5 353.5V401.5C375.5 403.433 373.933 405 372 405H28C26.067 405 24.5 403.433 24.5 401.5V353.5Z" stroke="black" stroke-opacity="0.23"/>
<path d="M38.8984 371.125V382.5H37.3906V371.125H38.8984ZM45.9062 371.125L40.9688 377.383H38.2969L38.0625 376.133H40.0703L44.0391 371.125H45.9062ZM44.3906 382.5L40.1172 377.188L40.9609 375.867L46.2344 382.5H44.3906ZM52.5172 381.055V376.703C52.5172 376.37 52.4495 376.081 52.3141 375.836C52.1839 375.586 51.9859 375.393 51.7203 375.258C51.4547 375.122 51.1266 375.055 50.7359 375.055C50.3714 375.055 50.051 375.117 49.775 375.242C49.5042 375.367 49.2906 375.531 49.1344 375.734C48.9833 375.938 48.9078 376.156 48.9078 376.391H47.4625C47.4625 376.089 47.5406 375.789 47.6969 375.492C47.8531 375.195 48.0771 374.927 48.3687 374.688C48.6656 374.443 49.0198 374.25 49.4312 374.109C49.8479 373.964 50.3115 373.891 50.8219 373.891C51.4365 373.891 51.9781 373.995 52.4469 374.203C52.9208 374.411 53.2906 374.727 53.5562 375.148C53.8271 375.565 53.9625 376.089 53.9625 376.719V380.656C53.9625 380.938 53.9859 381.237 54.0328 381.555C54.0849 381.872 54.1604 382.146 54.2594 382.375V382.5H52.7516C52.6786 382.333 52.6214 382.112 52.5797 381.836C52.538 381.555 52.5172 381.294 52.5172 381.055ZM52.7672 377.375L52.7828 378.391H51.3219C50.9104 378.391 50.5432 378.424 50.2203 378.492C49.8974 378.555 49.6266 378.651 49.4078 378.781C49.1891 378.911 49.0224 379.076 48.9078 379.273C48.7932 379.466 48.7359 379.693 48.7359 379.953C48.7359 380.219 48.7958 380.461 48.9156 380.68C49.0354 380.898 49.2151 381.073 49.4547 381.203C49.6995 381.328 49.999 381.391 50.3531 381.391C50.7958 381.391 51.1865 381.297 51.525 381.109C51.8635 380.922 52.1318 380.693 52.3297 380.422C52.5328 380.151 52.6422 379.888 52.6578 379.633L53.275 380.328C53.2385 380.547 53.1396 380.789 52.9781 381.055C52.8167 381.32 52.6005 381.576 52.3297 381.82C52.0641 382.06 51.7464 382.26 51.3766 382.422C51.012 382.578 50.6005 382.656 50.1422 382.656C49.5693 382.656 49.0667 382.544 48.6344 382.32C48.2073 382.096 47.874 381.797 47.6344 381.422C47.4 381.042 47.2828 380.617 47.2828 380.148C47.2828 379.695 47.3714 379.297 47.5484 378.953C47.7255 378.604 47.9807 378.315 48.3141 378.086C48.6474 377.852 49.0484 377.674 49.5172 377.555C49.9859 377.435 50.5094 377.375 51.0875 377.375H52.7672ZM61.8078 370.367H62.9953C62.9953 370.878 62.9172 371.284 62.7609 371.586C62.6047 371.883 62.3911 372.112 62.1203 372.273C61.8547 372.435 61.5526 372.557 61.2141 372.641C60.8807 372.724 60.5344 372.805 60.175 372.883C59.7271 372.977 59.3104 373.125 58.925 373.328C58.5448 373.526 58.2167 373.807 57.9406 374.172C57.6698 374.536 57.4693 375.01 57.3391 375.594C57.2141 376.177 57.1802 376.898 57.2375 377.758V378.477H56.05V377.758C56.05 376.794 56.1411 375.953 56.3234 375.234C56.5109 374.516 56.774 373.909 57.1125 373.414C57.451 372.919 57.8521 372.526 58.3156 372.234C58.7844 371.943 59.3 371.742 59.8625 371.633C60.2687 371.555 60.6177 371.471 60.9094 371.383C61.201 371.289 61.4224 371.164 61.5734 371.008C61.7297 370.852 61.8078 370.638 61.8078 370.367ZM60.0969 374.531C60.649 374.531 61.1411 374.628 61.5734 374.82C62.0057 375.013 62.3729 375.281 62.675 375.625C62.9771 375.969 63.2062 376.375 63.3625 376.844C63.524 377.307 63.6047 377.812 63.6047 378.359V378.531C63.6047 379.12 63.5187 379.667 63.3469 380.172C63.1802 380.672 62.9328 381.109 62.6047 381.484C62.2818 381.854 61.8859 382.143 61.4172 382.352C60.9536 382.56 60.425 382.664 59.8312 382.664C59.2375 382.664 58.7062 382.56 58.2375 382.352C57.774 382.143 57.3781 381.854 57.05 381.484C56.7219 381.109 56.4719 380.672 56.3 380.172C56.1333 379.667 56.05 379.12 56.05 378.531V378.359C56.05 378.229 56.0734 378.102 56.1203 377.977C56.1672 377.852 56.2245 377.724 56.2922 377.594C56.3651 377.464 56.4302 377.326 56.4875 377.18C56.6802 376.711 56.9432 376.276 57.2766 375.875C57.6151 375.474 58.0187 375.151 58.4875 374.906C58.9615 374.656 59.4979 374.531 60.0969 374.531ZM59.8156 375.711C59.2844 375.711 58.8469 375.833 58.5031 376.078C58.1646 376.323 57.912 376.648 57.7453 377.055C57.5786 377.456 57.4953 377.891 57.4953 378.359V378.531C57.4953 378.927 57.5422 379.302 57.6359 379.656C57.7297 380.01 57.8703 380.326 58.0578 380.602C58.2505 380.872 58.4927 381.086 58.7844 381.242C59.0812 381.398 59.4302 381.477 59.8312 381.477C60.2323 381.477 60.5786 381.398 60.8703 381.242C61.162 381.086 61.4016 380.872 61.5891 380.602C61.7766 380.326 61.9172 380.01 62.0109 379.656C62.1047 379.302 62.1516 378.927 62.1516 378.531V378.359C62.1516 378.005 62.1047 377.669 62.0109 377.352C61.9172 377.034 61.774 376.753 61.5812 376.508C61.3937 376.263 61.1516 376.07 60.8547 375.93C60.563 375.784 60.2167 375.711 59.8156 375.711ZM66.8172 380.211L70.7156 374.047H72.1688V382.5H70.7156V376.336L66.8172 382.5H65.3797V374.047H66.8172V380.211ZM80.3734 377.711V378.883H75.9047V377.711H80.3734ZM76.2094 374.047V382.5H74.7641V374.047H76.2094ZM81.5453 374.047V382.5H80.0922V374.047H81.5453ZM87.5312 382.656C86.9427 382.656 86.4089 382.557 85.9297 382.359C85.4557 382.156 85.0469 381.872 84.7031 381.508C84.3646 381.143 84.1042 380.711 83.9219 380.211C83.7396 379.711 83.6484 379.164 83.6484 378.57V378.242C83.6484 377.555 83.75 376.943 83.9531 376.406C84.1562 375.865 84.4323 375.406 84.7812 375.031C85.1302 374.656 85.526 374.372 85.9688 374.18C86.4115 373.987 86.8698 373.891 87.3438 373.891C87.9479 373.891 88.4688 373.995 88.9062 374.203C89.349 374.411 89.7109 374.703 89.9922 375.078C90.2734 375.448 90.4818 375.885 90.6172 376.391C90.7526 376.891 90.8203 377.438 90.8203 378.031V378.68H84.5078V377.5H89.375V377.391C89.3542 377.016 89.276 376.651 89.1406 376.297C89.0104 375.943 88.8021 375.651 88.5156 375.422C88.2292 375.193 87.8385 375.078 87.3438 375.078C87.0156 375.078 86.7135 375.148 86.4375 375.289C86.1615 375.424 85.9245 375.628 85.7266 375.898C85.5286 376.169 85.375 376.5 85.2656 376.891C85.1562 377.281 85.1016 377.732 85.1016 378.242V378.57C85.1016 378.971 85.1562 379.349 85.2656 379.703C85.3802 380.052 85.5443 380.359 85.7578 380.625C85.9766 380.891 86.2396 381.099 86.5469 381.25C86.8594 381.401 87.2135 381.477 87.6094 381.477C88.1198 381.477 88.5521 381.372 88.9062 381.164C89.2604 380.956 89.5703 380.677 89.8359 380.328L90.7109 381.023C90.5286 381.299 90.2969 381.562 90.0156 381.812C89.7344 382.062 89.388 382.266 88.9766 382.422C88.5703 382.578 88.0885 382.656 87.5312 382.656ZM96.0094 374.047V382.5H94.5563V374.047H96.0094ZM98.8453 374.047V375.219H91.775V374.047H98.8453Z" fill="black" fill-opacity="0.87"/>
<path d="M347 375L352 380L357 375H347Z" fill="black" fill-opacity="0.56"/>
<path d="M24.5 425.5C24.5 423.567 26.067 422 28 422H372C373.933 422 375.5 423.567 375.5 425.5V473.5C375.5 475.433 373.933 477 372 477H28C26.067 477 24.5 475.433 24.5 473.5V425.5Z" stroke="black" stroke-opacity="0.23"/>
<path d="M44.1875 450.883H45.6875C45.6094 451.602 45.4036 452.245 45.0703 452.812C44.737 453.38 44.2656 453.831 43.6562 454.164C43.0469 454.492 42.2865 454.656 41.375 454.656C40.7083 454.656 40.1016 454.531 39.5547 454.281C39.013 454.031 38.5469 453.677 38.1562 453.219C37.7656 452.755 37.4635 452.201 37.25 451.555C37.0417 450.904 36.9375 450.18 36.9375 449.383V448.25C36.9375 447.453 37.0417 446.732 37.25 446.086C37.4635 445.435 37.7682 444.878 38.1641 444.414C38.5651 443.951 39.0469 443.594 39.6094 443.344C40.1719 443.094 40.8047 442.969 41.5078 442.969C42.3672 442.969 43.0938 443.13 43.6875 443.453C44.2812 443.776 44.7422 444.224 45.0703 444.797C45.4036 445.365 45.6094 446.023 45.6875 446.773H44.1875C44.1146 446.242 43.9792 445.786 43.7812 445.406C43.5833 445.021 43.3021 444.724 42.9375 444.516C42.5729 444.307 42.0964 444.203 41.5078 444.203C41.0026 444.203 40.5573 444.299 40.1719 444.492C39.7917 444.685 39.4714 444.958 39.2109 445.312C38.9557 445.667 38.763 446.091 38.6328 446.586C38.5026 447.081 38.4375 447.63 38.4375 448.234V449.383C38.4375 449.94 38.4948 450.464 38.6094 450.953C38.7292 451.443 38.9089 451.872 39.1484 452.242C39.388 452.612 39.6927 452.904 40.0625 453.117C40.4323 453.326 40.8698 453.43 41.375 453.43C42.0156 453.43 42.526 453.328 42.9062 453.125C43.2865 452.922 43.5729 452.63 43.7656 452.25C43.9635 451.87 44.1042 451.414 44.1875 450.883ZM51.1187 446.047V454.5H49.6656V446.047H51.1187ZM53.9547 446.047V447.219H46.8844V446.047H53.9547ZM60.3859 453.055V448.703C60.3859 448.37 60.3182 448.081 60.1828 447.836C60.0526 447.586 59.8547 447.393 59.5891 447.258C59.3234 447.122 58.9953 447.055 58.6047 447.055C58.2401 447.055 57.9198 447.117 57.6437 447.242C57.3729 447.367 57.1594 447.531 57.0031 447.734C56.8521 447.938 56.7766 448.156 56.7766 448.391H55.3312C55.3312 448.089 55.4094 447.789 55.5656 447.492C55.7219 447.195 55.9458 446.927 56.2375 446.688C56.5344 446.443 56.8885 446.25 57.3 446.109C57.7167 445.964 58.1802 445.891 58.6906 445.891C59.3052 445.891 59.8469 445.995 60.3156 446.203C60.7896 446.411 61.1594 446.727 61.425 447.148C61.6958 447.565 61.8312 448.089 61.8312 448.719V452.656C61.8312 452.938 61.8547 453.237 61.9016 453.555C61.9536 453.872 62.0292 454.146 62.1281 454.375V454.5H60.6203C60.5474 454.333 60.4901 454.112 60.4484 453.836C60.4068 453.555 60.3859 453.294 60.3859 453.055ZM60.6359 449.375L60.6516 450.391H59.1906C58.7792 450.391 58.412 450.424 58.0891 450.492C57.7661 450.555 57.4953 450.651 57.2766 450.781C57.0578 450.911 56.8911 451.076 56.7766 451.273C56.662 451.466 56.6047 451.693 56.6047 451.953C56.6047 452.219 56.6646 452.461 56.7844 452.68C56.9042 452.898 57.0839 453.073 57.3234 453.203C57.5682 453.328 57.8677 453.391 58.2219 453.391C58.6646 453.391 59.0552 453.297 59.3937 453.109C59.7323 452.922 60.0005 452.693 60.1984 452.422C60.4016 452.151 60.5109 451.888 60.5266 451.633L61.1437 452.328C61.1073 452.547 61.0083 452.789 60.8469 453.055C60.6854 453.32 60.4693 453.576 60.1984 453.82C59.9328 454.06 59.6151 454.26 59.2453 454.422C58.8807 454.578 58.4693 454.656 58.0109 454.656C57.438 454.656 56.9354 454.544 56.5031 454.32C56.076 454.096 55.7427 453.797 55.5031 453.422C55.2687 453.042 55.1516 452.617 55.1516 452.148C55.1516 451.695 55.2401 451.297 55.4172 450.953C55.5943 450.604 55.8495 450.315 56.1828 450.086C56.5161 449.852 56.9172 449.674 57.3859 449.555C57.8547 449.435 58.3781 449.375 58.9562 449.375H60.6359ZM67.575 446.047V454.5H66.1219V446.047H67.575ZM70.4109 446.047V447.219H63.3406V446.047H70.4109ZM74.4516 453.625L76.8031 446.047H78.35L74.9594 455.805C74.8812 456.013 74.7771 456.237 74.6469 456.477C74.5219 456.721 74.3604 456.953 74.1625 457.172C73.9646 457.391 73.725 457.568 73.4437 457.703C73.1677 457.844 72.837 457.914 72.4516 457.914C72.337 457.914 72.1911 457.898 72.0141 457.867C71.837 457.836 71.712 457.81 71.6391 457.789L71.6312 456.617C71.6729 456.622 71.738 456.628 71.8266 456.633C71.9203 456.643 71.9854 456.648 72.0219 456.648C72.35 456.648 72.6286 456.604 72.8578 456.516C73.087 456.432 73.2797 456.289 73.4359 456.086C73.5974 455.888 73.7354 455.615 73.85 455.266L74.4516 453.625ZM72.725 446.047L74.9203 452.609L75.2953 454.133L74.2562 454.664L71.1469 446.047H72.725ZM83.0781 453.469C83.4219 453.469 83.7396 453.398 84.0312 453.258C84.3229 453.117 84.5625 452.924 84.75 452.68C84.9375 452.43 85.0443 452.146 85.0703 451.828H86.4453C86.4193 452.328 86.25 452.794 85.9375 453.227C85.6302 453.654 85.2266 454 84.7266 454.266C84.2266 454.526 83.6771 454.656 83.0781 454.656C82.4427 454.656 81.888 454.544 81.4141 454.32C80.9453 454.096 80.5547 453.789 80.2422 453.398C79.9349 453.008 79.7031 452.56 79.5469 452.055C79.3958 451.544 79.3203 451.005 79.3203 450.438V450.109C79.3203 449.542 79.3958 449.005 79.5469 448.5C79.7031 447.99 79.9349 447.539 80.2422 447.148C80.5547 446.758 80.9453 446.451 81.4141 446.227C81.888 446.003 82.4427 445.891 83.0781 445.891C83.7396 445.891 84.3177 446.026 84.8125 446.297C85.3073 446.562 85.6953 446.927 85.9766 447.391C86.263 447.849 86.4193 448.37 86.4453 448.953H85.0703C85.0443 448.604 84.9453 448.289 84.7734 448.008C84.6068 447.727 84.3776 447.503 84.0859 447.336C83.7995 447.164 83.4635 447.078 83.0781 447.078C82.6354 447.078 82.263 447.167 81.9609 447.344C81.6641 447.516 81.4271 447.75 81.25 448.047C81.0781 448.339 80.9531 448.664 80.875 449.023C80.8021 449.378 80.7656 449.74 80.7656 450.109V450.438C80.7656 450.807 80.8021 451.172 80.875 451.531C80.9479 451.891 81.0703 452.216 81.2422 452.508C81.4193 452.799 81.6562 453.034 81.9531 453.211C82.2552 453.383 82.6302 453.469 83.0781 453.469ZM97.9719 446.047V447.242H93.6984V446.047H97.9719ZM93.9094 446.047V454.5H92.4641V446.047H93.9094ZM99.2531 446.047V454.5H97.8V446.047H99.2531ZM103.169 447.672V457.75H101.716V446.047H103.044L103.169 447.672ZM108.864 450.203V450.367C108.864 450.982 108.791 451.552 108.645 452.078C108.499 452.599 108.286 453.052 108.005 453.438C107.729 453.823 107.387 454.122 106.981 454.336C106.575 454.549 106.109 454.656 105.583 454.656C105.046 454.656 104.572 454.568 104.161 454.391C103.749 454.214 103.401 453.956 103.114 453.617C102.828 453.279 102.598 452.872 102.427 452.398C102.26 451.924 102.145 451.391 102.083 450.797V449.922C102.145 449.297 102.262 448.737 102.434 448.242C102.606 447.747 102.833 447.326 103.114 446.977C103.401 446.622 103.747 446.354 104.153 446.172C104.559 445.984 105.028 445.891 105.559 445.891C106.091 445.891 106.562 445.995 106.973 446.203C107.385 446.406 107.731 446.698 108.012 447.078C108.294 447.458 108.505 447.914 108.645 448.445C108.791 448.971 108.864 449.557 108.864 450.203ZM107.411 450.367V450.203C107.411 449.781 107.367 449.385 107.278 449.016C107.19 448.641 107.052 448.312 106.864 448.031C106.682 447.745 106.447 447.521 106.161 447.359C105.874 447.193 105.533 447.109 105.137 447.109C104.773 447.109 104.455 447.172 104.184 447.297C103.919 447.422 103.692 447.591 103.505 447.805C103.317 448.013 103.164 448.253 103.044 448.523C102.929 448.789 102.843 449.065 102.786 449.352V451.375C102.89 451.74 103.036 452.083 103.223 452.406C103.411 452.724 103.661 452.982 103.973 453.18C104.286 453.372 104.679 453.469 105.153 453.469C105.544 453.469 105.88 453.388 106.161 453.227C106.447 453.06 106.682 452.833 106.864 452.547C107.052 452.26 107.19 451.932 107.278 451.562C107.367 451.188 107.411 450.789 107.411 450.367ZM112.42 452.211L116.319 446.047H117.772V454.5H116.319V448.336L112.42 454.5H110.983V446.047H112.42V452.211ZM123.75 454.656C123.161 454.656 122.628 454.557 122.148 454.359C121.674 454.156 121.266 453.872 120.922 453.508C120.583 453.143 120.323 452.711 120.141 452.211C119.958 451.711 119.867 451.164 119.867 450.57V450.242C119.867 449.555 119.969 448.943 120.172 448.406C120.375 447.865 120.651 447.406 121 447.031C121.349 446.656 121.745 446.372 122.188 446.18C122.63 445.987 123.089 445.891 123.562 445.891C124.167 445.891 124.688 445.995 125.125 446.203C125.568 446.411 125.93 446.703 126.211 447.078C126.492 447.448 126.701 447.885 126.836 448.391C126.971 448.891 127.039 449.438 127.039 450.031V450.68H120.727V449.5H125.594V449.391C125.573 449.016 125.495 448.651 125.359 448.297C125.229 447.943 125.021 447.651 124.734 447.422C124.448 447.193 124.057 447.078 123.562 447.078C123.234 447.078 122.932 447.148 122.656 447.289C122.38 447.424 122.143 447.628 121.945 447.898C121.747 448.169 121.594 448.5 121.484 448.891C121.375 449.281 121.32 449.732 121.32 450.242V450.57C121.32 450.971 121.375 451.349 121.484 451.703C121.599 452.052 121.763 452.359 121.977 452.625C122.195 452.891 122.458 453.099 122.766 453.25C123.078 453.401 123.432 453.477 123.828 453.477C124.339 453.477 124.771 453.372 125.125 453.164C125.479 452.956 125.789 452.677 126.055 452.328L126.93 453.023C126.747 453.299 126.516 453.562 126.234 453.812C125.953 454.062 125.607 454.266 125.195 454.422C124.789 454.578 124.307 454.656 123.75 454.656ZM133.736 452.578L136.611 446.047H138.002L134.236 454.5H133.236L129.486 446.047H130.877L133.736 452.578ZM130.455 446.047V454.5H129.009V446.047H130.455ZM136.97 454.5V446.047H138.423V454.5H136.97ZM145.886 453.055V448.703C145.886 448.37 145.818 448.081 145.683 447.836C145.553 447.586 145.355 447.393 145.089 447.258C144.823 447.122 144.495 447.055 144.105 447.055C143.74 447.055 143.42 447.117 143.144 447.242C142.873 447.367 142.659 447.531 142.503 447.734C142.352 447.938 142.277 448.156 142.277 448.391H140.831C140.831 448.089 140.909 447.789 141.066 447.492C141.222 447.195 141.446 446.927 141.738 446.688C142.034 446.443 142.389 446.25 142.8 446.109C143.217 445.964 143.68 445.891 144.191 445.891C144.805 445.891 145.347 445.995 145.816 446.203C146.29 446.411 146.659 446.727 146.925 447.148C147.196 447.565 147.331 448.089 147.331 448.719V452.656C147.331 452.938 147.355 453.237 147.402 453.555C147.454 453.872 147.529 454.146 147.628 454.375V454.5H146.12C146.047 454.333 145.99 454.112 145.948 453.836C145.907 453.555 145.886 453.294 145.886 453.055ZM146.136 449.375L146.152 450.391H144.691C144.279 450.391 143.912 450.424 143.589 450.492C143.266 450.555 142.995 450.651 142.777 450.781C142.558 450.911 142.391 451.076 142.277 451.273C142.162 451.466 142.105 451.693 142.105 451.953C142.105 452.219 142.165 452.461 142.284 452.68C142.404 452.898 142.584 453.073 142.823 453.203C143.068 453.328 143.368 453.391 143.722 453.391C144.165 453.391 144.555 453.297 144.894 453.109C145.232 452.922 145.501 452.693 145.698 452.422C145.902 452.151 146.011 451.888 146.027 451.633L146.644 452.328C146.607 452.547 146.508 452.789 146.347 453.055C146.185 453.32 145.969 453.576 145.698 453.82C145.433 454.06 145.115 454.26 144.745 454.422C144.381 454.578 143.969 454.656 143.511 454.656C142.938 454.656 142.435 454.544 142.003 454.32C141.576 454.096 141.243 453.797 141.003 453.422C140.769 453.042 140.652 452.617 140.652 452.148C140.652 451.695 140.74 451.297 140.917 450.953C141.094 450.604 141.349 450.315 141.683 450.086C142.016 449.852 142.417 449.674 142.886 449.555C143.355 449.435 143.878 449.375 144.456 449.375H146.136Z" fill="black" fill-opacity="0.87"/>
<path d="M347 447L352 452L357 447H347Z" fill="black" fill-opacity="0.56"/>
<rect x="24" y="493.5" width="352" height="42" rx="8" fill="#2AC6FF"/>
<path d="M167.521 508.836V519.5H165.69V510.301H160.952V519.5H159.121V508.836H167.521ZM171.79 513.099V522.547H170.025V511.575H171.651L171.79 513.099ZM176.954 515.464V515.618C176.954 516.194 176.885 516.729 176.749 517.222C176.617 517.71 176.419 518.138 176.155 518.504C175.897 518.865 175.577 519.146 175.196 519.346C174.815 519.546 174.376 519.646 173.877 519.646C173.384 519.646 172.952 519.556 172.581 519.375C172.215 519.19 171.905 518.929 171.651 518.592C171.397 518.255 171.192 517.859 171.036 517.405C170.884 516.946 170.777 516.443 170.713 515.896V515.303C170.777 514.722 170.884 514.195 171.036 513.721C171.192 513.248 171.397 512.84 171.651 512.498C171.905 512.156 172.215 511.893 172.581 511.707C172.947 511.521 173.375 511.429 173.863 511.429C174.361 511.429 174.803 511.526 175.189 511.722C175.574 511.912 175.899 512.186 176.163 512.542C176.426 512.894 176.624 513.318 176.756 513.816C176.888 514.31 176.954 514.859 176.954 515.464ZM175.189 515.618V515.464C175.189 515.098 175.154 514.759 175.086 514.446C175.018 514.129 174.91 513.851 174.764 513.611C174.617 513.372 174.429 513.187 174.2 513.055C173.975 512.918 173.704 512.85 173.387 512.85C173.074 512.85 172.806 512.903 172.581 513.011C172.356 513.113 172.168 513.257 172.017 513.443C171.866 513.628 171.749 513.846 171.666 514.095C171.583 514.339 171.524 514.605 171.49 514.893V516.314C171.548 516.666 171.648 516.988 171.79 517.281C171.932 517.574 172.132 517.808 172.391 517.984C172.654 518.155 172.991 518.24 173.401 518.24C173.719 518.24 173.99 518.172 174.214 518.035C174.439 517.898 174.622 517.71 174.764 517.471C174.91 517.227 175.018 516.946 175.086 516.629C175.154 516.312 175.189 515.975 175.189 515.618ZM180.739 516.922L183.852 511.575H185.617V519.5H183.852V514.146L180.739 519.5H178.974V511.575H180.739V516.922ZM192.654 517.361L195.012 511.575H196.543L193.255 519.5H192.053L188.772 511.575H190.303L192.654 517.361ZM189.849 511.575V519.5H188.084V511.575H189.849ZM195.459 519.5V511.575H197.232V519.5H195.459ZM203.163 519.646C202.577 519.646 202.047 519.551 201.573 519.361C201.105 519.166 200.704 518.895 200.372 518.548C200.045 518.201 199.794 517.793 199.618 517.325C199.442 516.856 199.354 516.351 199.354 515.809V515.516C199.354 514.896 199.444 514.334 199.625 513.831C199.806 513.328 200.057 512.898 200.38 512.542C200.702 512.181 201.083 511.905 201.522 511.714C201.962 511.524 202.438 511.429 202.95 511.429C203.517 511.429 204.012 511.524 204.437 511.714C204.862 511.905 205.214 512.173 205.492 512.52C205.775 512.862 205.985 513.27 206.122 513.743C206.263 514.217 206.334 514.739 206.334 515.311V516.065H200.211V514.798H204.591V514.659C204.581 514.341 204.518 514.043 204.401 513.765C204.288 513.487 204.115 513.262 203.881 513.091C203.646 512.92 203.334 512.835 202.943 512.835C202.65 512.835 202.389 512.898 202.159 513.025C201.935 513.147 201.747 513.326 201.595 513.56C201.444 513.794 201.327 514.078 201.244 514.41C201.166 514.737 201.127 515.105 201.127 515.516V515.809C201.127 516.155 201.173 516.478 201.266 516.775C201.363 517.068 201.505 517.325 201.691 517.544C201.876 517.764 202.101 517.938 202.364 518.064C202.628 518.187 202.928 518.248 203.265 518.248C203.69 518.248 204.069 518.162 204.401 517.991C204.733 517.82 205.021 517.579 205.265 517.266L206.195 518.167C206.024 518.416 205.802 518.655 205.528 518.885C205.255 519.109 204.921 519.292 204.525 519.434C204.134 519.576 203.68 519.646 203.163 519.646ZM213.584 514.886V516.277H209.482V514.886H213.584ZM209.995 511.575V519.5H208.23V511.575H209.995ZM214.858 511.575V519.5H213.093V511.575H214.858ZM219.024 516.922L222.137 511.575H223.902V519.5H222.137V514.146L219.024 519.5H217.259V511.575H219.024V516.922ZM229.907 511.575V519.5H228.134V511.575H229.907ZM232.507 511.575V512.967H225.578V511.575H232.507ZM235.457 514.095H237.793C238.477 514.095 239.058 514.209 239.536 514.439C240.015 514.668 240.379 514.988 240.628 515.398C240.882 515.804 241.009 516.268 241.009 516.79C241.009 517.176 240.938 517.535 240.796 517.867C240.655 518.194 240.445 518.479 240.166 518.724C239.893 518.968 239.556 519.158 239.156 519.295C238.76 519.432 238.306 519.5 237.793 519.5H234.285V511.575H236.057V518.101H237.793C238.145 518.101 238.426 518.04 238.636 517.918C238.846 517.796 238.997 517.637 239.09 517.442C239.187 517.247 239.236 517.039 239.236 516.819C239.236 516.595 239.187 516.382 239.09 516.182C238.997 515.982 238.846 515.818 238.636 515.691C238.426 515.564 238.145 515.501 237.793 515.501H235.457V514.095Z" fill="white"/>
</svg>
