<svg width="56" height="1000" viewBox="0 0 56 1000" fill="none" xmlns="http://www.w3.org/2000/svg">
<path d="M0.5 0.5H48C52.1421 0.5 55.5 3.85786 55.5 8V64C55.5 68.1421 52.1421 71.5 48 71.5H0.5V0.5Z" fill="black" fill-opacity="0.04"/>
<path d="M0.5 0.5H48C52.1421 0.5 55.5 3.85786 55.5 8V64C55.5 68.1421 52.1421 71.5 48 71.5H0.5V0.5Z" stroke="#E0E0E0"/>
<path d="M33 36H28V41H33V36ZM32 25V27H24V25H22V27H21C19.89 27 19.01 27.9 19.01 29L19 43C19 44.1 19.89 45 21 45H35C36.1 45 37 44.1 37 43V29C37 27.9 36.1 27 35 27H34V25H32ZM35 43H21V32H35V43Z" fill="black" fill-opacity="0.56"/>
<path d="M0.5 74.5H48C52.1421 74.5 55.5 77.8579 55.5 82V138C55.5 142.142 52.1421 145.5 48 145.5H0.5V74.5Z" fill="white"/>
<path d="M0.5 74.5H48C52.1421 74.5 55.5 77.8579 55.5 82V138C55.5 142.142 52.1421 145.5 48 145.5H0.5V74.5Z" stroke="#E0E0E0"/>
<path d="M32 109C33.66 109 34.99 107.66 34.99 106C34.99 104.34 33.66 103 32 103C30.34 103 29 104.34 29 106C29 107.66 30.34 109 32 109ZM24 109C25.66 109 26.99 107.66 26.99 106C26.99 104.34 25.66 103 24 103C22.34 103 21 104.34 21 106C21 107.66 22.34 109 24 109ZM24 111C21.67 111 17 112.17 17 114.5V117H31V114.5C31 112.17 26.33 111 24 111ZM32 111C31.71 111 31.38 111.02 31.03 111.05C32.19 111.89 33 113.02 33 114.5V117H39V114.5C39 112.17 34.33 111 32 111Z" fill="black" fill-opacity="0.56"/>
<path d="M0.5 148.5H48C52.1421 148.5 55.5 151.858 55.5 156V212C55.5 216.142 52.1421 219.5 48 219.5H0.5V148.5Z" fill="white"/>
<path d="M0.5 148.5H48C52.1421 148.5 55.5 151.858 55.5 156V212C55.5 216.142 52.1421 219.5 48 219.5H0.5V148.5Z" stroke="#E0E0E0"/>
<path d="M33 184H28V189H33V184ZM32 173V175H24V173H22V175H21C19.89 175 19.01 175.9 19.01 177L19 191C19 192.1 19.89 193 21 193H35C36.1 193 37 192.1 37 191V177C37 175.9 36.1 175 35 175H34V173H32ZM35 191H21V180H35V191Z" fill="black" fill-opacity="0.56"/>
<path d="M0.5 222.5H48C52.1421 222.5 55.5 225.858 55.5 230V286C55.5 290.142 52.1421 293.5 48 293.5H0.5V222.5Z" fill="white"/>
<path d="M0.5 222.5H48C52.1421 222.5 55.5 225.858 55.5 230V286C55.5 290.142 52.1421 293.5 48 293.5H0.5V222.5Z" stroke="#E0E0E0"/>
<path d="M33 258H28V263H33V258ZM32 247V249H24V247H22V249H21C19.89 249 19.01 249.9 19.01 251L19 265C19 266.1 19.89 267 21 267H35C36.1 267 37 266.1 37 265V251C37 249.9 36.1 249 35 249H34V247H32ZM35 265H21V254H35V265Z" fill="black" fill-opacity="0.56"/>
<path d="M0.5 296.5H48C52.1421 296.5 55.5 299.858 55.5 304V360C55.5 364.142 52.1421 367.5 48 367.5H0.5V296.5Z" fill="white"/>
<path d="M0.5 296.5H48C52.1421 296.5 55.5 299.858 55.5 304V360C55.5 364.142 52.1421 367.5 48 367.5H0.5V296.5Z" stroke="#E0E0E0"/>
<path d="M35.1401 332.94C35.1801 332.64 35.2001 332.33 35.2001 332C35.2001 331.68 35.1801 331.36 35.1301 331.06L37.1601 329.48C37.3401 329.34 37.3901 329.07 37.2801 328.87L35.3601 325.55C35.2401 325.33 34.9901 325.26 34.7701 325.33L32.3801 326.29C31.8801 325.91 31.3501 325.59 30.7601 325.35L30.4001 322.81C30.3601 322.57 30.1601 322.4 29.9201 322.4H26.0801C25.8401 322.4 25.6501 322.57 25.6101 322.81L25.2501 325.35C24.6601 325.59 24.1201 325.92 23.6301 326.29L21.2401 325.33C21.0201 325.25 20.7701 325.33 20.6501 325.55L18.7401 328.87C18.6201 329.08 18.6601 329.34 18.8601 329.48L20.8901 331.06C20.8401 331.36 20.8001 331.69 20.8001 332C20.8001 332.31 20.8201 332.64 20.8701 332.94L18.8401 334.52C18.6601 334.66 18.6101 334.93 18.7201 335.13L20.6401 338.45C20.7601 338.67 21.0101 338.74 21.2301 338.67L23.6201 337.71C24.1201 338.09 24.6501 338.41 25.2401 338.65L25.6001 341.19C25.6501 341.43 25.8401 341.6 26.0801 341.6H29.9201C30.1601 341.6 30.3601 341.43 30.3901 341.19L30.7501 338.65C31.3401 338.41 31.8801 338.09 32.3701 337.71L34.7601 338.67C34.9801 338.75 35.2301 338.67 35.3501 338.45L37.2701 335.13C37.3901 334.91 37.3401 334.66 37.1501 334.52L35.1401 332.94ZM28.0001 335.6C26.0201 335.6 24.4001 333.98 24.4001 332C24.4001 330.02 26.0201 328.4 28.0001 328.4C29.9801 328.4 31.6001 330.02 31.6001 332C31.6001 333.98 29.9801 335.6 28.0001 335.6Z" fill="black" fill-opacity="0.56"/>
<path d="M0.5 370.5H48C52.1421 370.5 55.5 373.858 55.5 378V1008C55.5 1012.14 52.1421 1015.5 48 1015.5H0.5V370.5Z" fill="white"/>
<path d="M0.5 370.5H48C52.1421 370.5 55.5 373.858 55.5 378V1008C55.5 1012.14 52.1421 1015.5 48 1015.5H0.5V370.5Z" stroke="#E0E0E0"/>
</svg>
