<svg width="1920" height="64" viewBox="0 0 1920 64" fill="none" xmlns="http://www.w3.org/2000/svg">
<rect x="0.5" y="0.5" width="1919" height="63" fill="white"/>
<rect x="0.5" y="0.5" width="1919" height="63" stroke="#E0E0E0"/>
<path d="M16 41.2727V18H20.9205V27.6023H30.9091V18H35.8182V41.2727H30.9091V31.6591H20.9205V41.2727H16Z" fill="#2AC6FF"/>
<path d="M46.1386 41.6136C44.3432 41.6136 42.7977 41.25 41.5023 40.5227C40.2144 39.7879 39.222 38.75 38.525 37.4091C37.828 36.0606 37.4795 34.4659 37.4795 32.625C37.4795 30.8295 37.828 29.2538 38.525 27.8977C39.222 26.5417 40.203 25.4848 41.4682 24.7273C42.7409 23.9697 44.2333 23.5909 45.9455 23.5909C47.097 23.5909 48.1689 23.7765 49.1614 24.1477C50.1614 24.5114 51.0326 25.0606 51.775 25.7955C52.525 26.5303 53.1083 27.4545 53.525 28.5682C53.9417 29.6742 54.15 30.9697 54.15 32.4545V33.7841H39.4114V30.7841H49.5932C49.5932 30.0871 49.4417 29.4697 49.1386 28.9318C48.8356 28.3939 48.4151 27.9735 47.8773 27.6705C47.347 27.3598 46.7295 27.2045 46.025 27.2045C45.2902 27.2045 44.6386 27.375 44.0705 27.7159C43.5098 28.0492 43.0705 28.5 42.7523 29.0682C42.4341 29.6288 42.2712 30.2538 42.2636 30.9432V33.7955C42.2636 34.6591 42.4227 35.4053 42.7409 36.0341C43.0667 36.6629 43.525 37.1477 44.1159 37.4886C44.7068 37.8295 45.4076 38 46.2182 38C46.7561 38 47.2485 37.9242 47.6955 37.7727C48.1424 37.6212 48.525 37.3939 48.8432 37.0909C49.1614 36.7879 49.4038 36.4167 49.5705 35.9773L54.0477 36.2727C53.8205 37.3485 53.3545 38.2879 52.65 39.0909C51.953 39.8864 51.0515 40.5076 49.9455 40.9545C48.847 41.3939 47.578 41.6136 46.1386 41.6136Z" fill="#2AC6FF"/>
<path d="M60.6864 41.6023C59.5727 41.6023 58.5803 41.4091 57.7091 41.0227C56.8379 40.6288 56.1485 40.0492 55.6409 39.2841C55.1409 38.5114 54.8909 37.5492 54.8909 36.3977C54.8909 35.428 55.0689 34.6136 55.425 33.9545C55.7811 33.2955 56.2659 32.7652 56.8795 32.3636C57.4932 31.9621 58.1902 31.6591 58.9705 31.4545C59.7583 31.25 60.5841 31.1061 61.4477 31.0227C62.4629 30.9167 63.2811 30.8182 63.9023 30.7273C64.5235 30.6288 64.9742 30.4848 65.2545 30.2955C65.5348 30.1061 65.675 29.8258 65.675 29.4545V29.3864C65.675 28.6667 65.4477 28.1098 64.9932 27.7159C64.5462 27.322 63.9099 27.125 63.0841 27.125C62.2129 27.125 61.5197 27.3182 61.0045 27.7045C60.4894 28.0833 60.1485 28.5606 59.9818 29.1364L55.5045 28.7727C55.7318 27.7121 56.1788 26.7955 56.8455 26.0227C57.5121 25.2424 58.372 24.6439 59.425 24.2273C60.4856 23.803 61.7129 23.5909 63.1068 23.5909C64.0765 23.5909 65.0045 23.7045 65.8909 23.9318C66.7848 24.1591 67.5765 24.5114 68.2659 24.9886C68.9629 25.4659 69.5121 26.0795 69.9136 26.8295C70.3152 27.572 70.5159 28.4621 70.5159 29.5V41.2727H65.925V38.8523H65.7886C65.5083 39.3977 65.1333 39.8788 64.6636 40.2955C64.1939 40.7045 63.6295 41.0265 62.9705 41.2614C62.3114 41.4886 61.55 41.6023 60.6864 41.6023ZM62.0727 38.2614C62.7848 38.2614 63.4136 38.1212 63.9591 37.8409C64.5045 37.553 64.9326 37.1667 65.2432 36.6818C65.5538 36.197 65.7091 35.6477 65.7091 35.0341V33.1818C65.5576 33.2803 65.3492 33.3712 65.0841 33.4545C64.8265 33.5303 64.5348 33.6023 64.2091 33.6705C63.8833 33.7311 63.5576 33.7879 63.2318 33.8409C62.9061 33.8864 62.6106 33.928 62.3455 33.9659C61.7773 34.0492 61.2811 34.1818 60.8568 34.3636C60.4326 34.5455 60.103 34.7917 59.8682 35.1023C59.6333 35.4053 59.5159 35.7841 59.5159 36.2386C59.5159 36.8977 59.7545 37.4015 60.2318 37.75C60.7167 38.0909 61.3303 38.2614 62.0727 38.2614Z" fill="#2AC6FF"/>
<path d="M77.5125 18V41.2727H72.6716V18H77.5125Z" fill="#2AC6FF"/>
<path d="M79.7903 47.8182V23.8182H84.5631V26.75H84.779C84.9911 26.2803 85.2979 25.803 85.6994 25.3182C86.1085 24.8258 86.6388 24.4167 87.2903 24.0909C87.9494 23.7576 88.7676 23.5909 89.7449 23.5909C91.0176 23.5909 92.1918 23.9242 93.2676 24.5909C94.3434 25.25 95.2032 26.2462 95.8472 27.5795C96.4911 28.9053 96.8131 30.5682 96.8131 32.5682C96.8131 34.5152 96.4987 36.1591 95.8699 37.5C95.2487 38.8333 94.4002 39.8447 93.3244 40.5341C92.2562 41.2159 91.0593 41.5568 89.7335 41.5568C88.7941 41.5568 87.9949 41.4015 87.3358 41.0909C86.6843 40.7803 86.1502 40.3902 85.7335 39.9205C85.3169 39.4432 84.9987 38.9621 84.779 38.4773H84.6312V47.8182H79.7903ZM84.529 32.5455C84.529 33.5833 84.6729 34.4886 84.9608 35.2614C85.2487 36.0341 85.6653 36.6364 86.2108 37.0682C86.7562 37.4924 87.4191 37.7045 88.1994 37.7045C88.9873 37.7045 89.654 37.4886 90.1994 37.0568C90.7449 36.6174 91.1578 36.0114 91.4381 35.2386C91.7259 34.4583 91.8699 33.5606 91.8699 32.5455C91.8699 31.5379 91.7297 30.6515 91.4494 29.8864C91.1691 29.1212 90.7562 28.5227 90.2108 28.0909C89.6653 27.6591 88.9949 27.4432 88.1994 27.4432C87.4116 27.4432 86.7449 27.6515 86.1994 28.0682C85.6616 28.4848 85.2487 29.0758 84.9608 29.8409C84.6729 30.6061 84.529 31.5076 84.529 32.5455Z" fill="#2AC6FF"/>
<path d="M100.866 47.8182C100.253 47.8182 99.6771 47.7689 99.1392 47.6705C98.6089 47.5795 98.1695 47.4621 97.821 47.3182L98.9119 43.7045C99.4801 43.8788 99.9915 43.9735 100.446 43.9886C100.908 44.0038 101.306 43.8977 101.639 43.6705C101.98 43.4432 102.257 43.0568 102.469 42.5114L102.753 41.7727L96.4915 23.8182H101.582L105.196 36.6364H105.378L109.026 23.8182H114.151L107.366 43.1591C107.041 44.0985 106.598 44.9167 106.037 45.6136C105.484 46.3182 104.783 46.8598 103.935 47.2386C103.086 47.625 102.063 47.8182 100.866 47.8182Z" fill="#2AC6FF"/>
<rect x="1824" y="12" width="40" height="40" rx="20" fill="#BDBDBD"/>
<path d="M1843.33 31.4414V32.3398C1843.33 33.4076 1843.2 34.3646 1842.93 35.2109C1842.67 36.0573 1842.28 36.7767 1841.78 37.3691C1841.28 37.9616 1840.68 38.4141 1839.97 38.7266C1839.28 39.0391 1838.5 39.1953 1837.63 39.1953C1836.79 39.1953 1836.02 39.0391 1835.32 38.7266C1834.62 38.4141 1834.01 37.9616 1833.5 37.3691C1832.99 36.7767 1832.6 36.0573 1832.32 35.2109C1832.04 34.3646 1831.9 33.4076 1831.9 32.3398V31.4414C1831.9 30.3737 1832.04 29.4199 1832.31 28.5801C1832.59 27.7337 1832.98 27.0143 1833.49 26.4219C1834 25.8229 1834.6 25.3672 1835.3 25.0547C1836 24.7422 1836.77 24.5859 1837.61 24.5859C1838.48 24.5859 1839.26 24.7422 1839.96 25.0547C1840.66 25.3672 1841.26 25.8229 1841.76 26.4219C1842.27 27.0143 1842.66 27.7337 1842.92 28.5801C1843.2 29.4199 1843.33 30.3737 1843.33 31.4414ZM1841.47 32.3398V31.4219C1841.47 30.5755 1841.38 29.8268 1841.21 29.1758C1841.04 28.5247 1840.79 27.9779 1840.45 27.5352C1840.12 27.0924 1839.71 26.7572 1839.23 26.5293C1838.76 26.3014 1838.22 26.1875 1837.61 26.1875C1837.03 26.1875 1836.5 26.3014 1836.02 26.5293C1835.55 26.7572 1835.15 27.0924 1834.81 27.5352C1834.48 27.9779 1834.22 28.5247 1834.04 29.1758C1833.86 29.8268 1833.76 30.5755 1833.76 31.4219V32.3398C1833.76 33.1927 1833.86 33.9479 1834.04 34.6055C1834.22 35.2565 1834.48 35.8066 1834.82 36.2559C1835.16 36.6986 1835.57 37.0339 1836.04 37.2617C1836.51 37.4896 1837.05 37.6035 1837.63 37.6035C1838.24 37.6035 1838.79 37.4896 1839.26 37.2617C1839.74 37.0339 1840.14 36.6986 1840.46 36.2559C1840.8 35.8066 1841.05 35.2565 1841.22 34.6055C1841.38 33.9479 1841.47 33.1927 1841.47 32.3398ZM1851.54 33.4238H1847.74V31.8906H1851.54C1852.28 31.8906 1852.87 31.7734 1853.33 31.5391C1853.78 31.3047 1854.12 30.9792 1854.32 30.5625C1854.54 30.1458 1854.65 29.6706 1854.65 29.1367C1854.65 28.6484 1854.54 28.1895 1854.32 27.7598C1854.12 27.3301 1853.78 26.985 1853.33 26.7246C1852.87 26.4577 1852.28 26.3242 1851.54 26.3242H1848.18V39H1846.3V24.7812H1851.54C1852.61 24.7812 1853.52 24.9668 1854.27 25.3379C1855.01 25.709 1855.57 26.2233 1855.95 26.8809C1856.34 27.5319 1856.53 28.2773 1856.53 29.1172C1856.53 30.0286 1856.34 30.8066 1855.95 31.4512C1855.57 32.0957 1855.01 32.5872 1854.27 32.9258C1853.52 33.2578 1852.61 33.4238 1851.54 33.4238Z" fill="white"/>
<path d="M1897 27L1895.59 28.41L1898.17 31H1888V33H1898.17L1895.59 35.58L1897 37L1902 32L1897 27ZM1884 25H1892V23H1884C1882.9 23 1882 23.9 1882 25V39C1882 40.1 1882.9 41 1884 41H1892V39H1884V25Z" fill="black" fill-opacity="0.56"/>
</svg>
